<svg width="37" height="18" viewBox="0 0 37 18" fill="none" xmlns="http://www.w3.org/2000/svg">
<path d="M4.93652 14.2637C7.69043 14.2637 9.3457 12.147 9.3457 8.62402C9.3457 5.17432 7.65381 3.16016 4.97314 3.16016C2.60742 3.16016 0.930176 4.71289 0.930176 6.90283C0.930176 8.92432 2.40234 10.3965 4.40918 10.3965C5.63965 10.3965 6.62109 9.83984 7.10449 8.84375H7.23633C7.24365 11.1436 6.40137 12.5059 4.96582 12.5059C4.13086 12.5059 3.44971 12.0518 3.25928 11.334H1.06934C1.3623 13.0845 2.92969 14.2637 4.93652 14.2637ZM4.98779 8.75586C3.85986 8.75586 3.07617 7.96484 3.07617 6.83691C3.07617 5.75293 3.88916 4.91064 4.99512 4.91064C6.10107 4.91064 6.90674 5.76758 6.90674 6.87354C6.90674 7.95752 6.11572 8.75586 4.98779 8.75586ZM12.7588 7.34961C13.5498 7.34961 14.0552 6.82959 14.0552 6.11182C14.0552 5.38672 13.5498 4.8667 12.7588 4.8667C11.9751 4.8667 11.4624 5.38672 11.4624 6.11182C11.4624 6.82959 11.9751 7.34961 12.7588 7.34961ZM12.7588 12.5498C13.5498 12.5498 14.0552 12.0298 14.0552 11.312C14.0552 10.5869 13.5498 10.0669 12.7588 10.0669C11.9751 10.0669 11.4624 10.5869 11.4624 11.312C11.4624 12.0298 11.9751 12.5498 12.7588 12.5498ZM21.3721 14H23.4814V12.0591H24.8657V10.2866H23.4814V3.43115H20.3833C18.9697 5.59912 17.5342 7.94287 16.2012 10.3232V12.0591H21.3721V14ZM18.186 10.228C19.1455 8.52148 20.2734 6.68311 21.3062 5.1084H21.4233V10.3452H18.186V10.228ZM29.1284 14H31.3403V3.43115H29.1357L26.4038 5.32812V7.32031L28.9966 5.51855H29.1284V14Z" fill="white"/>
</svg>
