<svg width="354" height="13" viewBox="0 0 354 13" fill="none" xmlns="http://www.w3.org/2000/svg">
<path fill-rule="evenodd" clip-rule="evenodd" d="M9.3457 5.62402C9.3457 9.14697 7.69043 11.2637 4.93652 11.2637C2.92969 11.2637 1.3623 10.0845 1.06934 8.33398H3.25928C3.44971 9.05176 4.13086 9.50586 4.96582 9.50586C6.40137 9.50586 7.24365 8.14355 7.23633 5.84375H7.10449C6.62109 6.83984 5.63965 7.39648 4.40918 7.39648C2.40234 7.39648 0.930176 5.92432 0.930176 3.90283C0.930176 1.71289 2.60742 0.160156 4.97314 0.160156C7.65381 0.160156 9.3457 2.17432 9.3457 5.62402ZM3.07617 3.83691C3.07617 4.96484 3.85986 5.75586 4.98779 5.75586C6.11572 5.75586 6.90674 4.95752 6.90674 3.87354C6.90674 2.76758 6.10107 1.91064 4.99512 1.91064C3.88916 1.91064 3.07617 2.75293 3.07617 3.83691ZM14.0552 3.11182C14.0552 3.82959 13.5498 4.34961 12.7588 4.34961C11.9751 4.34961 11.4624 3.82959 11.4624 3.11182C11.4624 2.38672 11.9751 1.8667 12.7588 1.8667C13.5498 1.8667 14.0552 2.38672 14.0552 3.11182ZM14.0552 8.31201C14.0552 9.02979 13.5498 9.5498 12.7588 9.5498C11.9751 9.5498 11.4624 9.02979 11.4624 8.31201C11.4624 7.58691 11.9751 7.06689 12.7588 7.06689C13.5498 7.06689 14.0552 7.58691 14.0552 8.31201ZM23.4814 11H21.3721V9.05908H16.2012V7.32324C17.5342 4.94287 18.9697 2.59912 20.3833 0.431152H23.4814V7.28662H24.8657V9.05908H23.4814V11ZM21.3062 2.1084C20.2734 3.68311 19.1455 5.52148 18.186 7.22803V7.34521H21.4233V2.1084H21.3062ZM31.3403 11H29.1284V2.51855H28.9966L26.4038 4.32031V2.32812L29.1357 0.431152H31.3403V11ZM313.94 11.9425C313.981 11.9585 314.025 11.9668 314.069 11.967C314.156 11.9653 314.239 11.9319 314.3 11.874L316.459 9.85802C316.492 9.82805 316.518 9.79221 316.535 9.75267C316.552 9.71313 316.561 9.67072 316.56 9.62801C316.56 9.58551 316.55 9.54353 316.532 9.50465C316.513 9.46578 316.486 9.43085 316.452 9.40201C315.786 8.8795 314.941 8.59279 314.068 8.59279C313.194 8.59279 312.35 8.8795 311.683 9.40201C311.649 9.43059 311.621 9.46537 311.602 9.50421C311.583 9.54305 311.572 9.58513 311.571 9.62785C311.57 9.67057 311.579 9.71303 311.596 9.75262C311.613 9.7922 311.639 9.82807 311.672 9.85802L313.831 11.874C313.862 11.9033 313.899 11.9266 313.94 11.9425ZM317.624 8.34402C317.687 8.3986 317.77 8.429 317.855 8.42901C317.899 8.42902 317.943 8.42098 317.983 8.40536C318.024 8.38974 318.061 8.36686 318.092 8.33801L319.335 7.17101C319.4 7.10976 319.437 7.02708 319.437 6.94102C319.436 6.89811 319.426 6.85574 319.408 6.81642C319.389 6.77709 319.362 6.7416 319.329 6.71202C317.899 5.47954 316.019 4.79439 314.066 4.79439C312.113 4.79439 310.233 5.47954 308.803 6.71202C308.771 6.74198 308.744 6.7777 308.727 6.8171C308.709 6.8565 308.7 6.8988 308.7 6.94151C308.7 6.98423 308.709 7.02652 308.727 7.06593C308.744 7.10533 308.771 7.14105 308.803 7.17101L310.049 8.33801C310.08 8.36702 310.117 8.39001 310.158 8.40563C310.198 8.42125 310.242 8.4292 310.286 8.42901C310.372 8.429 310.455 8.3986 310.517 8.34402C311.49 7.52608 312.757 7.07299 314.071 7.07299C315.385 7.07299 316.651 7.52608 317.624 8.34402ZM320.596 5.72194C320.636 5.73687 320.678 5.74438 320.721 5.74401C320.766 5.74466 320.81 5.73693 320.851 5.7213C320.893 5.70566 320.93 5.68243 320.962 5.65302L322.21 4.48801C322.243 4.45803 322.269 4.42233 322.286 4.383C322.303 4.34368 322.312 4.30152 322.312 4.25901C322.311 4.2163 322.301 4.17418 322.282 4.13506C322.264 4.09594 322.237 4.06058 322.204 4.03101C320.014 2.08739 317.099 1.00238 314.066 1.00238C311.033 1.00238 308.118 2.08739 305.928 4.03101C305.896 4.06093 305.87 4.09646 305.853 4.13559C305.835 4.17471 305.826 4.21665 305.826 4.25901C305.826 4.30137 305.835 4.34332 305.853 4.38244C305.87 4.42157 305.896 4.4571 305.928 4.48701L307.17 5.65302C307.201 5.68202 307.238 5.70501 307.279 5.72063C307.32 5.73625 307.364 5.7442 307.408 5.74401C307.451 5.74438 307.493 5.73687 307.533 5.72194C307.572 5.70701 307.608 5.68494 307.639 5.65701C309.372 4.12998 311.673 3.27844 314.064 3.27844C316.456 3.27844 318.757 4.12998 320.49 5.65701C320.52 5.68494 320.556 5.70701 320.596 5.72194ZM330.621 1.00299C329.032 1.00299 327.743 2.19705 327.743 3.66999V9.66899C327.743 11.1419 329.032 12.336 330.621 12.336H348.609C350.199 12.336 351.487 11.1419 351.487 9.66899V3.66999C351.487 2.19705 350.199 1.00299 348.609 1.00299H330.621ZM352.567 8.66998V4.66998C352.991 4.83569 353.354 5.11384 353.609 5.46961C353.864 5.82537 354 6.24293 354 6.66998C354 7.09703 353.864 7.51459 353.609 7.87036C353.354 8.22612 352.991 8.50428 352.567 8.66998ZM299.322 12.004H298.242C297.956 12.004 297.682 11.8987 297.479 11.7111C297.277 11.5236 297.163 11.2692 297.163 11.004V2.33701C297.163 2.0718 297.277 1.81744 297.479 1.62991C297.682 1.44237 297.956 1.33701 298.242 1.33701H299.322C299.608 1.33701 299.882 1.44237 300.085 1.62991C300.287 1.81744 300.401 2.0718 300.401 2.33701V11.004C300.401 11.2692 300.287 11.5236 300.085 11.7111C299.882 11.8987 299.608 12.004 299.322 12.004ZM294.285 12.004H293.205C292.919 12.004 292.645 11.8987 292.442 11.7111C292.24 11.5236 292.126 11.2692 292.126 11.004V4.67101C292.126 4.4058 292.24 4.15144 292.442 3.96391C292.645 3.77637 292.919 3.67101 293.205 3.67101H294.285C294.571 3.67101 294.845 3.77637 295.048 3.96391C295.25 4.15144 295.364 4.4058 295.364 4.67101V11.004C295.364 11.2691 295.25 11.5233 295.048 11.7108C294.846 11.8983 294.572 12.0037 294.286 12.004H294.285ZM289.248 12.004H288.168C287.882 12.004 287.607 11.8987 287.405 11.7111C287.203 11.5236 287.089 11.2692 287.089 11.004V7.00401C287.089 6.7388 287.203 6.48444 287.405 6.29691C287.607 6.10937 287.882 6.00401 288.168 6.00401H289.248C289.534 6.00401 289.808 6.10937 290.011 6.29691C290.213 6.48444 290.327 6.7388 290.327 7.00401V11.004C290.327 11.2692 290.213 11.5236 290.011 11.7111C289.808 11.8987 289.534 12.004 289.248 12.004ZM284.212 12.004H283.132C282.846 12.004 282.571 11.8987 282.369 11.7111C282.167 11.5236 282.053 11.2692 282.053 11.004V9.00401C282.053 8.7388 282.167 8.48444 282.369 8.29691C282.571 8.10937 282.846 8.00401 283.132 8.00401H284.212C284.498 8.00401 284.772 8.10937 284.975 8.29691C285.177 8.48444 285.291 8.7388 285.291 9.00401V11.004C285.291 11.2692 285.177 11.5236 284.975 11.7111C284.772 11.8987 284.498 12.004 284.212 12.004Z" fill="white"/>
</svg>
